<?xml version="1.0" standalone="no"?>
<!DOCTYPE svg PUBLIC "-//W3C//DTD SVG 20010904//EN"
 "http://www.w3.org/TR/2001/REC-SVG-20010904/DTD/svg10.dtd">
<svg version="1.0" xmlns="http://www.w3.org/2000/svg"
 width="260.000000pt" height="260.000000pt" viewBox="0 0 260.000000 260.000000"
 preserveAspectRatio="xMidYMid meet">
<metadata>
Created by potrace 1.14, written by Peter Selinger 2001-2017
</metadata>
<g transform="translate(0.000000,260.000000) scale(0.100000,-0.100000)"
fill="#000000" stroke="none">
<path d="M957 2573 c-4 -3 -7 -154 -7 -335 0 -180 -2 -328 -5 -328 -3 0 -98
54 -211 120 -113 67 -243 141 -289 166 l-84 45 -17 -33 c-9 -18 -84 -149 -165
-290 -82 -142 -149 -261 -149 -267 0 -11 120 -86 380 -236 102 -59 186 -108
188 -110 3 -3 -239 -147 -431 -256 -71 -40 -131 -77 -133 -84 -4 -9 279 -515
319 -570 14 -19 16 -19 48 -4 19 9 150 84 291 167 l258 150 2 -341 3 -342 343
-3 342 -2 0 340 c0 250 3 340 12 340 6 0 122 -65 257 -144 262 -153 304 -176
320 -176 5 0 24 26 42 58 18 31 93 162 167 291 129 223 134 235 116 248 -10 8
-75 46 -144 85 -255 144 -412 240 -404 247 5 4 90 54 189 111 224 128 375 222
375 232 0 5 -11 25 -24 46 -13 21 -88 150 -166 287 -79 138 -144 252 -146 254
-4 4 -276 -148 -479 -268 l-120 -70 -5 337 -5 337 -331 3 c-182 1 -333 -1
-337 -5z m643 -373 c0 -257 3 -340 12 -340 15 0 131 65 396 223 164 97 206
118 213 106 23 -33 171 -284 239 -403 70 -124 73 -130 54 -143 -10 -8 -116
-70 -234 -139 -236 -137 -330 -196 -330 -205 0 -9 190 -120 407 -240 95 -52
172 -98 173 -102 0 -7 -296 -526 -306 -536 -8 -9 -100 42 -346 190 -136 82
-249 149 -252 149 -4 0 -6 -157 -6 -350 l0 -350 -320 0 -320 0 0 351 c0 277
-3 350 -12 346 -7 -3 -139 -80 -293 -171 -154 -91 -284 -166 -290 -166 -11 0
-22 18 -196 321 -66 113 -119 210 -119 215 0 5 89 58 198 118 238 133 382 218
382 226 0 7 -348 216 -492 296 -48 27 -88 54 -88 59 0 11 294 523 308 537 4 4
50 -18 102 -49 347 -204 484 -283 492 -283 4 0 8 153 8 340 l0 340 310 0 310
0 0 -340z"/>
<path d="M1010 2165 c0 -195 -2 -355 -5 -355 -3 0 -140 79 -304 175 -165 96
-302 175 -305 175 -4 0 -26 -30 -50 -67 -47 -74 -246 -418 -246 -426 0 -5 191
-120 468 -282 73 -43 131 -82 129 -88 -2 -6 -137 -85 -300 -176 -163 -91 -297
-169 -297 -172 0 -5 244 -432 278 -487 11 -18 27 -10 349 180 141 82 261 152
269 155 11 4 14 -55 16 -358 l3 -364 285 0 285 1 3 362 c1 199 5 362 8 362 3
0 141 -79 307 -176 l300 -176 18 23 c16 22 241 404 267 455 10 19 3 25 -81 76
-51 30 -188 108 -304 174 -117 65 -213 121 -213 124 0 3 135 84 300 180 194
113 300 180 300 190 0 9 -55 110 -122 226 -66 115 -128 221 -137 236 -9 16
-20 28 -25 28 -11 0 -228 -122 -459 -256 -88 -52 -162 -94 -163 -94 -2 0 -4
160 -4 355 l0 355 -285 0 -285 0 0 -355z m360 170 c17 -9 30 -23 30 -33 3
-122 -2 -554 -6 -677 -7 -174 -12 -191 -73 -249 l-31 -30 -1 50 c-1 27 -3 59
-4 71 -1 12 -6 146 -10 297 l-7 276 31 0 c38 0 97 49 88 73 -3 9 -32 24 -66
34 l-60 18 -3 70 c-4 65 -2 72 21 92 31 27 51 29 91 8z m-51 -203 c67 -21 79
-42 24 -42 -27 0 -34 -3 -23 -10 25 -16 1 -25 -66 -25 -73 0 -84 -8 -84 -67 0
-66 21 -137 56 -189 32 -46 35 -55 32 -112 l-3 -62 -61 57 c-68 65 -100 122
-116 205 -12 69 -2 117 40 184 30 47 80 79 122 78 14 0 49 -8 79 -17z m131
-492 c103 -73 93 -194 -27 -328 -113 -125 -133 -158 -132 -211 l1 -46 8 48 c8
44 67 142 80 130 2 -2 3 -55 1 -117 l-3 -113 34 -32 c32 -30 33 -33 33 -108
l0 -78 -67 -88 -68 -88 0 -67 -1 -67 -30 34 c-29 31 -31 38 -27 92 4 51 9 63
50 111 48 56 88 116 88 133 0 6 -8 -3 -19 -20 -10 -16 -28 -39 -40 -49 l-21
-19 0 141 c0 88 -4 142 -10 142 -5 0 -10 -14 -10 -30 0 -30 0 -30 -26 -14 -14
10 -34 34 -45 55 -42 82 -14 173 86 281 93 101 105 127 105 238 0 49 3 90 6
90 3 0 19 -9 34 -20z m-76 -1142 c-4 -90 -11 -174 -16 -187 -5 -14 -6 -49 -2
-78 4 -33 3 -53 -4 -53 -13 0 -21 88 -23 270 -2 135 0 159 15 183 10 15 23 27
28 27 6 0 7 -60 2 -162z m29 -195 c-28 -58 -43 -53 -27 9 8 29 14 68 15 88 l1
35 15 -48 c13 -44 13 -51 -4 -84z"/>
<path d="M1272 2118 c5 -15 28 -18 29 -3 0 6 -7 12 -17 13 -10 3 -15 -1 -12
-10z"/>
</g>
</svg>
